<svg xmlns="http://www.w3.org/2000/svg" direction="ltr" width="1345" height="1345" viewBox="6217.656314085664 4396 1345 1345" stroke-linecap="round" stroke-linejoin="round" data-color-mode="light" class="tl-container tl-theme__force-sRGB tl-theme__light" style="background-color: transparent;"><defs/><g transform="matrix(1, 0, 0, 1, 6217.6563, 4396)" opacity="1"><g transform="scale(1, 1)"><g>
<g xmlns="http://www.w3.org/2000/svg" stroke-width="2.00" fill="none" stroke-linecap="butt">
<path stroke="#3a78e2" vector-effect="non-scaling-stroke" d="   M 690.98 86.16   Q 688.29 83.20 685.26 81.48   Q 674.31 75.24 661.16 79.45"/>
<path stroke="#3a78e2" vector-effect="non-scaling-stroke" d="   M 693.18 88.97   Q 697.45 92.20 702.00 91.61   Q 710.15 90.58 713.02 90.80   Q 723.06 91.57 733.11 90.15"/>
<path stroke="#0d357e" vector-effect="non-scaling-stroke" d="   M 849.71 299.16   Q 849.10 298.57 848.50 298.79"/>
<path stroke="#3a78e2" vector-effect="non-scaling-stroke" d="   M 845.94 295.52   Q 845.62 293.63 846.09 292.06   A 0.87 0.53 -50.2 0 0 846.12 291.85   L 845.96 272.76   A 0.16 0.15 -88.1 0 0 845.82 272.60   Q 845.33 272.55 845.05 273.05"/>
<path stroke="#3a78e2" vector-effect="non-scaling-stroke" d="   M 843.89 271.91   Q 846.70 271.07 847.14 267.93   A 0.33 0.33 0.0 0 0 846.59 267.65   Q 841.27 272.78 836.56 276.61   C 828.85 282.88 821.02 290.99 815.94 296.32   A 0.64 0.64 0.0 0 0 815.77 296.70   Q 815.72 297.30 816.20 297.30"/>
<path stroke="#0d357e" vector-effect="non-scaling-stroke" d="   M 814.46 297.80   L 813.52 297.89"/>
<path stroke="#3a78e2" vector-effect="non-scaling-stroke" d="   M 546.83 567.24   Q 545.05 567.22 543.27 569.97   A 3.71 3.53 88.6 0 1 542.47 570.85   Q 536.13 575.84 530.24 582.48   A 0.87 0.87 0.0 0 0 530.28 583.67   L 547.43 600.82   A 0.33 0.32 -57.2 0 0 547.96 600.70   L 548.12 600.26"/>
<path stroke="#3a78e2" vector-effect="non-scaling-stroke" d="   M 675.96 717.66   Q 680.47 718.62 681.56 719.19   Q 689.94 723.53 695.35 730.91   Q 697.04 733.21 696.30 736.41   C 696.13 737.15 696.58 738.02 697.14 738.50"/>
<path stroke="#0d357e" vector-effect="non-scaling-stroke" d="   M 337.86 508.29   L 337.87 506.54"/>
<path stroke="#0d357e" vector-effect="non-scaling-stroke" d="   M 337.87 503.99   L 337.86 488.57"/>
<path stroke="#0d357e" vector-effect="non-scaling-stroke" d="   M 337.86 488.29   L 337.79 485.53"/>
<path stroke="#0d357e" vector-effect="non-scaling-stroke" d="   M 337.88 458.50   L 337.87 453.82"/>
<path stroke="#0d357e" vector-effect="non-scaling-stroke" d="   M 337.87 451.55   Q 337.98 450.85 337.73 450.55"/>
<path stroke="#1d67e2" vector-effect="non-scaling-stroke" d="   M 328.63 409.96   Q 330.28 409.27 331.53 407.14   A 2.50 2.49 -4.3 0 1 332.15 406.42   Q 334.88 404.21 338.27 401.27   Q 338.81 400.80 338.98 400.29   A 0.76 0.75 -81.4 0 1 339.66 399.78   Q 340.53 399.74 346.52 398.49   C 357.95 396.11 366.37 400.76 373.71 408.28   Q 376.55 411.18 377.47 416.32"/>
<path stroke="#3a78e2" vector-effect="non-scaling-stroke" d="   M 494.27 547.15   Q 494.89 549.35 496.97 551.04"/>
<path stroke="#1d67e2" vector-effect="non-scaling-stroke" d="   M 496.97 551.04   Q 496.18 555.76 496.78 560.71   A 4.62 4.56 44.6 0 1 496.79 561.51   L 495.10 578.95   A 0.79 0.79 0.0 0 0 496.39 579.63   Q 498.21 578.09 503.02 573.23   Q 504.30 571.93 509.74 567.01   Q 517.37 560.10 523.75 552.10"/>
<path stroke="#3a78e2" vector-effect="non-scaling-stroke" d="   M 523.75 552.10   L 528.95 546.74"/>
<path stroke="#3a78e2" vector-effect="non-scaling-stroke" d="   M 534.57 541.65   Q 538.16 538.03 541.80 534.65   Q 546.89 529.94 549.08 527.73   Q 585.68 490.96 607.24 469.61   Q 632.00 445.10 661.71 414.85   Q 682.34 393.86 716.39 360.27   C 723.66 353.11 731.93 344.23 739.05 337.39   Q 748.47 328.33 756.29 320.45   Q 780.49 296.06 793.86 283.33   Q 799.42 278.04 802.48 273.93"/>
<path stroke="#3a78e2" vector-effect="non-scaling-stroke" d="   M 809.60 266.83   Q 813.56 263.72 810.13 261.42"/>
<path stroke="#498df9" vector-effect="non-scaling-stroke" d="   M 571.21 90.21   Q 583.62 91.25 596.13 90.44"/>
<path stroke="#1c4a96" vector-effect="non-scaling-stroke" d="   M 522.97 549.74   Q 523.12 550.11 523.49 550.30"/>
<path stroke="#498df9" vector-effect="non-scaling-stroke" d="   M 523.49 550.30   Q 522.74 551.68 523.75 552.10"/>
<path stroke="#498df9" vector-effect="non-scaling-stroke" d="   M 496.97 551.04   Q 498.02 551.12 498.19 550.20   Q 498.42 548.90 497.55 548.33"/>
<path stroke="#1c4a96" vector-effect="non-scaling-stroke" d="   M 497.55 548.33   Q 497.94 548.37 498.25 548.29   Q 498.41 548.25 498.45 548.11   Q 498.50 547.95 498.45 547.80"/>
<path stroke="#1c4a96" vector-effect="non-scaling-stroke" d="   M 498.38 545.29   L 498.34 544.29"/>
<path stroke="#385b96" vector-effect="non-scaling-stroke" d="   M 496.76 548.01   L 497.55 548.33"/>
<path stroke="#3a78e2" vector-effect="non-scaling-stroke" d="   M 1012.81 89.19   L 1004.81 81.08   A 2.69 2.66 79.0 0 0 1003.93 80.48   Q 997.58 77.79 996.24 77.70   C 992.57 77.46 988.40 77.40 984.63 78.55   Q 977.90 80.61 973.48 84.99   C 970.11 88.31 968.01 91.11 964.05 91.01   C 928.30 90.11 877.82 91.04 846.02 90.75   C 819.84 90.50 796.27 90.96 772.70 90.77   Q 764.11 90.69 756.50 91.01   Q 747.00 91.41 737.75 90.05"/>
<path stroke="#385b96" vector-effect="non-scaling-stroke" d="   M 523.49 550.30   Q 523.82 549.78 524.00 549.88"/>
<path stroke="#3a78e2" vector-effect="non-scaling-stroke" d="   M 954.50 727.78   Q 954.91 727.70 955.04 727.27"/>
<path stroke="#385b96" vector-effect="non-scaling-stroke" d="   M 955.35 727.04   Q 955.67 727.28 955.82 726.74   Q 955.94 726.33 955.73 725.94"/>
<path stroke="#385b96" vector-effect="non-scaling-stroke" d="   M 792.76 602.47   L 792.97 601.70"/>
<path stroke="#385b96" vector-effect="non-scaling-stroke" d="   M 792.98 599.98   Q 794.25 599.34 794.65 598.02"/>
<path stroke="#3a78e2" vector-effect="non-scaling-stroke" d="   M 546.21 569.74   L 545.53 570.44   A 0.43 0.43 0.0 0 0 545.97 571.15   L 546.29 571.05"/>
<path stroke="#3a78e2" vector-effect="non-scaling-stroke" d="   M 548.20 570.52   Q 549.18 570.69 550.04 570.29"/>
<path stroke="#385b96" vector-effect="non-scaling-stroke" d="   M 818.41 303.04   L 818.75 299.43"/>
<path stroke="#498df9" vector-effect="non-scaling-stroke" d="   M 358.62 78.50   Q 346.03 76.11 337.07 82.34   Q 333.48 84.83 332.11 87.36   Q 330.55 90.25 328.67 93.01   A 3.02 2.96 69.7 0 0 328.24 93.97   Q 327.43 97.21 325.51 99.72"/>
<path stroke="#385b96" vector-effect="non-scaling-stroke" d="   M 1227.44 1004.47   Q 1227.92 1003.87 1227.83 1003.50   Q 1227.70 1002.91 1227.01 1003.33   Q 1226.11 1003.87 1225.94 1005.10"/>
<path stroke="#385b96" vector-effect="non-scaling-stroke" d="   M 1179.12 890.18   Q 1183.21 890.18 1187.34 890.28   C 1191.93 890.39 1196.63 891.24 1201.39 891.70"/>
<path stroke="#385b96" vector-effect="non-scaling-stroke" d="   M 1223.18 903.21   L 1225.62 906.87   A 0.51 0.51 0.0 0 0 1226.55 906.55   L 1226.38 903.98"/>
<path stroke="#385b96" vector-effect="non-scaling-stroke" d="   M 298.16 907.93   Q 299.13 907.83 299.95 906.03"/>
<path stroke="#385b96" vector-effect="non-scaling-stroke" d="   M 458.06 907.62   Q 458.98 908.54 459.67 906.48"/>
<path stroke="#385b96" vector-effect="non-scaling-stroke" d="   M 669.55 1005.79   L 669.68 1004.64   A 0.31 0.31 0.0 0 0 669.20 1004.34   Q 668.81 1004.59 668.96 1005.23"/>
<path stroke="#385b96" vector-effect="non-scaling-stroke" d="   M 845.32 909.99   Q 845.07 910.50 845.31 910.79   A 0.95 0.95 0.0 0 0 846.83 910.70   Q 847.96 908.99 849.63 907.26"/>
<path stroke="#385b96" vector-effect="non-scaling-stroke" d="   M 763.38 905.26   Q 762.95 905.93 763.24 906.45   A 0.53 0.52 69.6 0 0 763.81 906.72   L 764.59 906.57"/>
<path stroke="#385b96" vector-effect="non-scaling-stroke" d="   M 1002.79 964.71   Q 1001.29 966.16 1003.62 968.72"/>
<path stroke="#385b96" vector-effect="non-scaling-stroke" d="   M 748.03 1113.96   Q 747.93 1114.65 748.21 1115.08   A 0.75 0.75 0.0 0 0 749.51 1115.01   Q 749.98 1114.08 748.90 1113.29"/>
<path stroke="#0d357e" vector-effect="non-scaling-stroke" d="   M 706.29 115.46   Q 705.88 115.70 705.90 116.22"/>
<path stroke="#3a78e2" vector-effect="non-scaling-stroke" d="   M 705.90 116.22   Q 705.78 115.76 705.44 115.67   Q 704.86 115.52 704.56 115.74   A 1.15 1.15 0.0 0 0 704.31 117.38   Q 705.65 119.12 707.41 120.81"/>
<path stroke="#3a78e2" vector-effect="non-scaling-stroke" d="   M 792.20 206.58   Q 808.35 223.74 825.11 240.24   C 826.58 241.68 827.96 242.41 829.15 243.70   A 2.29 2.29 0.0 0 0 832.38 243.81   C 837.87 238.65 844.21 232.80 848.73 228.27   Q 900.33 176.56 952.06 124.81"/>
<path stroke="#3a78e2" vector-effect="non-scaling-stroke" d="   M 955.78 120.32   Q 958.23 119.20 959.21 116.95   A 0.87 0.86 1.4 0 0 958.11 115.80   Q 957.60 115.98 957.11 116.72"/>
<path stroke="#0d357e" vector-effect="non-scaling-stroke" d="   M 957.11 116.72   L 956.96 116.05"/>
<path stroke="#0d357e" vector-effect="non-scaling-stroke" d="   M 956.05 115.38   Q 955.03 115.32 954.00 115.80"/>
<path stroke="#385b96" vector-effect="non-scaling-stroke" d="   M 705.90 116.22   L 706.18 116.82"/>
<path stroke="#385b96" vector-effect="non-scaling-stroke" d="   M 956.61 117.55   L 957.11 116.72"/>
<path stroke="#3a78e2" vector-effect="non-scaling-stroke" d="   M 973.31 388.38   L 977.61 392.93   A 0.60 0.59 -58.3 0 0 978.61 392.69   Q 979.36 390.20 978.38 388.40"/>
<path stroke="#0d357e" vector-effect="non-scaling-stroke" d="   M 978.04 136.50   Q 977.35 135.91 976.04 136.34"/>
<path stroke="#385b96" vector-effect="non-scaling-stroke" d="   M 976.99 388.73   L 978.04 388.57"/>
<path stroke="#3a78e2" vector-effect="non-scaling-stroke" d="   M 363.55 710.09   Q 363.25 710.44 363.48 710.74   Q 363.66 710.99 364.10 711.00   Q 366.29 711.07 366.94 708.49"/>
<path stroke="#3a78e2" vector-effect="non-scaling-stroke" d="   M 374.30 702.32   Q 383.69 694.03 386.11 691.37   Q 388.61 688.63 389.84 687.87   A 1.69 1.68 -83.8 0 0 390.20 687.58   Q 396.07 681.16 405.11 672.08   Q 405.82 671.37 432.52 644.77   Q 462.39 615.02 488.51 588.51   Q 490.37 586.62 492.36 584.39   Q 493.36 583.26 492.65 581.93   Q 492.27 581.21 491.25 581.44"/>
<path stroke="#3a78e2" vector-effect="non-scaling-stroke" d="   M 367.12 457.81   Q 366.57 455.93 364.98 455.86   Q 363.51 455.80 363.57 457.71"/>
<path stroke="#385b96" vector-effect="non-scaling-stroke" d="   M 364.97 457.12   Q 364.00 456.71 364.20 457.29"/>
<path stroke="#3a78e2" vector-effect="non-scaling-stroke" d="   M 385.96 727.39   Q 384.26 727.73 384.03 730.03   A 0.63 0.62 -80.4 0 0 384.50 730.70   Q 385.80 731.02 386.99 730.10"/>
<path stroke="#0d357e" vector-effect="non-scaling-stroke" d="   M 388.54 730.14   L 389.77 730.19"/>
<path stroke="#1d67e2" vector-effect="non-scaling-stroke" d="   M 606.89 730.16   Q 611.38 731.90 616.17 730.53"/>
<path stroke="#3a78e2" vector-effect="non-scaling-stroke" d="   M 627.60 730.20   L 639.09 730.30   A 0.83 0.83 0.0 0 0 639.83 729.09   Q 638.74 726.98 636.86 725.74"/>
<path stroke="#1c4a96" vector-effect="non-scaling-stroke" d="   M 363.26 389.07   L 363.95 389.29"/>
<path stroke="#498df9" vector-effect="non-scaling-stroke" d="   M 363.95 389.29   Q 363.38 390.25 364.00 391.00   A 1.10 1.10 0.0 0 0 365.54 391.18   Q 367.62 389.57 368.62 387.56"/>
<path stroke="#498df9" vector-effect="non-scaling-stroke" d="   M 400.63 355.47   Q 401.72 355.44 402.32 354.85   Q 437.92 319.43 473.86 284.36   Q 477.97 280.35 482.18 276.44   Q 486.12 272.78 485.27 268.64"/>
<path stroke="#1d67e2" vector-effect="non-scaling-stroke" d="   M 366.54 136.92   Q 366.20 136.39 365.27 136.78"/>
<path stroke="#385b96" vector-effect="non-scaling-stroke" d="   M 363.95 389.29   Q 364.00 389.15 364.04 389.01"/>
<path stroke="#385b96" vector-effect="non-scaling-stroke" d="   M 364.21 389.03   Q 364.90 389.00 365.30 388.52"/>
<path stroke="#385b96" vector-effect="non-scaling-stroke" d="   M 1002.46 942.33   Q 1001.88 942.56 1002.23 943.52   Q 1002.89 945.32 1004.07 944.67"/>
</g>
<path xmlns="http://www.w3.org/2000/svg" fill="#659ef9" d="   M 690.98 86.16   Q 688.29 83.20 685.26 81.48   Q 674.31 75.24 661.16 79.45   C 670.57 74.56 679.88 76.87 688.27 82.49   Q 690.25 83.81 690.98 86.16   Z"/>
<path xmlns="http://www.w3.org/2000/svg" fill="#659ef9" d="   M 1012.81 89.19   L 1004.81 81.08   A 2.69 2.66 79.0 0 0 1003.93 80.48   Q 997.58 77.79 996.24 77.70   C 992.57 77.46 988.40 77.40 984.63 78.55   Q 977.90 80.61 973.48 84.99   C 970.11 88.31 968.01 91.11 964.05 91.01   C 928.30 90.11 877.82 91.04 846.02 90.75   C 819.84 90.50 796.27 90.96 772.70 90.77   Q 764.11 90.69 756.50 91.01   Q 747.00 91.41 737.75 90.05   Q 839.67 89.97 941.50 89.54   Q 945.19 89.52 963.76 90.33   C 966.23 90.43 969.37 88.18 971.96 85.49   Q 976.29 81.01 982.44 78.67   Q 995.98 73.54 1007.19 82.30   Q 1010.62 84.98 1012.81 89.19   Z"/>
<path xmlns="http://www.w3.org/2000/svg" fill="#659ef9" d="   M 358.62 78.50   Q 346.03 76.11 337.07 82.34   Q 333.48 84.83 332.11 87.36   Q 330.55 90.25 328.67 93.01   A 3.02 2.96 69.7 0 0 328.24 93.97   Q 327.43 97.21 325.51 99.72   Q 326.85 93.92 329.95 88.90   C 333.54 83.07 339.11 79.08 345.62 77.44   Q 352.10 75.80 358.62 78.50   Z"/>
<path xmlns="http://www.w3.org/2000/svg" fill="#0e51ca" d="   M 690.98 86.16   Q 692.21 87.01 693.18 88.97   Q 697.45 92.20 702.00 91.61   Q 710.15 90.58 713.02 90.80   Q 723.06 91.57 733.11 90.15   L 737.75 90.05   Q 747.00 91.41 756.50 91.01   Q 764.11 90.69 772.70 90.77   C 796.27 90.96 819.84 90.50 846.02 90.75   C 877.82 91.04 928.30 90.11 964.05 91.01   C 968.01 91.11 970.11 88.31 973.48 84.99   Q 977.90 80.61 984.63 78.55   C 988.40 77.40 992.57 77.46 996.24 77.70   Q 997.58 77.79 1003.93 80.48   A 2.69 2.66 79.0 0 1 1004.81 81.08   L 1012.81 89.19   Q 1018.93 100.63 1013.86 113.44   C 1012.44 117.03 1009.70 118.64 1006.64 121.05   A 5.75 5.73 -9.0 0 0 1004.83 123.53   Q 1003.20 127.90 1003.26 130.02   Q 1003.61 142.04 1003.73 184.51   Q 1004.11 323.50 1003.40 394.25   Q 1003.37 396.74 1005.42 401.23   A 2.50 2.48 7.0 0 0 1006.14 402.14   Q 1007.00 402.82 1009.09 404.18   C 1014.47 407.68 1016.20 415.65 1016.72 421.68   Q 1017.09 426.01 1015.77 430.17   Q 1012.01 441.97 1000.85 447.56   Q 993.52 451.24 985.54 449.19   Q 969.35 445.01 966.01 429.35   C 965.33 426.18 965.72 422.12 965.20 419.03   C 964.56 415.25 963.69 412.87 960.67 410.08   Q 944.74 395.41 929.85 380.02   Q 921.67 371.56 911.88 362.09   C 902.15 352.69 890.74 340.57 879.77 329.96   C 875.55 325.89 871.06 321.02 867.06 316.87   C 863.35 313.01 857.37 305.56 851.86 300.40   Q 851.22 299.80 849.71 299.16   Q 849.10 298.57 848.50 298.79   Q 846.72 297.36 845.94 295.52   Q 845.62 293.63 846.09 292.06   A 0.87 0.53 -50.2 0 0 846.12 291.85   L 845.96 272.76   A 0.16 0.15 -88.1 0 0 845.82 272.60   Q 845.33 272.55 845.05 273.05   Q 845.11 271.93 843.89 271.91   Q 846.70 271.07 847.14 267.93   A 0.33 0.33 0.0 0 0 846.59 267.65   Q 841.27 272.78 836.56 276.61   C 828.85 282.88 821.02 290.99 815.94 296.32   A 0.64 0.64 0.0 0 0 815.77 296.70   Q 815.72 297.30 816.20 297.30   Q 815.37 297.73 814.46 297.80   L 813.52 297.89   Q 811.82 298.58 810.20 300.45   C 803.58 308.06 795.01 315.67 788.26 322.83   C 776.71 335.08 763.07 347.48 751.67 359.15   Q 738.12 373.03 731.17 379.60   C 721.83 388.43 712.73 398.48 702.09 408.84   C 691.92 418.73 682.84 428.67 672.85 438.27   Q 657.84 452.70 633.75 477.25   C 617.83 493.47 605.11 505.72 590.95 520.46   C 580.10 531.75 571.39 539.21 561.81 549.67   Q 556.88 555.06 550.18 560.76   Q 548.63 562.07 547.81 563.64   Q 546.82 565.51 546.83 567.24   Q 545.05 567.22 543.27 569.97   A 3.71 3.53 88.6 0 1 542.47 570.85   Q 536.13 575.84 530.24 582.48   A 0.87 0.87 0.0 0 0 530.28 583.67   L 547.43 600.82   A 0.33 0.32 -57.2 0 0 547.96 600.70   L 548.12 600.26   Q 548.64 602.92 550.50 604.75   Q 559.68 613.74 564.06 618.56   Q 565.44 620.08 574.79 628.79   C 577.49 631.31 580.10 634.55 582.75 637.25   Q 608.42 663.40 641.74 695.92   Q 643.34 697.49 657.36 712.86   C 660.35 716.14 662.90 717.49 667.25 717.53   Q 671.91 717.58 675.96 717.66   Q 680.47 718.62 681.56 719.19   Q 689.94 723.53 695.35 730.91   Q 697.04 733.21 696.30 736.41   C 696.13 737.15 696.58 738.02 697.14 738.50   Q 697.18 746.30 696.80 748.25   Q 694.89 758.10 686.11 764.15   Q 681.59 767.25 676.17 768.77   C 667.86 771.09 659.48 767.98 653.14 762.40   A 1.59 1.33 9.0 0 1 652.87 762.09   L 650.12 757.97   A 1.81 1.72 85.1 0 0 649.42 757.35   Q 645.54 755.46 642.50 755.49   Q 570.35 756.20 510.00 756.02   C 464.44 755.87 425.22 756.55 382.72 755.38   Q 377.71 755.24 375.39 756.23   C 372.10 757.64 370.29 760.96 368.20 762.57   Q 363.47 766.20 360.56 767.57   Q 355.17 770.10 349.88 769.49   Q 344.64 768.90 339.47 766.04   Q 332.88 762.39 329.38 756.36   Q 320.29 740.71 330.81 726.28   A 4.83 4.71 -2.6 0 1 331.54 725.50   C 336.11 721.60 339.41 720.48 338.97 713.25   Q 338.00 697.45 338.00 679.25   Q 337.97 593.77 337.86 508.29   L 337.87 506.54   L 337.87 503.99   L 337.86 488.57   Q 337.86 488.43 337.86 488.29   L 337.79 485.53   L 337.88 458.50   L 337.87 453.82   L 337.87 451.55   Q 337.98 450.85 337.73 450.55   C 337.62 447.05 336.66 445.46 333.87 443.06   Q 326.06 436.32 324.97 425.99   Q 324.07 417.39 328.63 409.96   Q 330.28 409.27 331.53 407.14   A 2.50 2.49 -4.3 0 1 332.15 406.42   Q 334.88 404.21 338.27 401.27   Q 338.81 400.80 338.98 400.29   A 0.76 0.75 -81.4 0 1 339.66 399.78   Q 340.53 399.74 346.52 398.49   C 357.95 396.11 366.37 400.76 373.71 408.28   Q 376.55 411.18 377.47 416.32   Q 376.52 423.67 379.20 431.30   Q 379.96 433.45 381.92 435.59   Q 393.24 447.91 395.45 450.05   Q 413.18 467.20 425.15 479.93   C 430.61 485.74 435.71 490.36 441.93 496.18   C 449.03 502.83 459.31 513.75 466.45 521.25   Q 466.54 521.35 477.35 531.51   Q 484.09 537.86 489.91 545.09   Q 491.17 546.66 494.27 547.15   Q 494.89 549.35 496.97 551.04   Q 496.18 555.76 496.78 560.71   A 4.62 4.56 44.6 0 1 496.79 561.51   L 495.10 578.95   A 0.79 0.79 0.0 0 0 496.39 579.63   Q 498.21 578.09 503.02 573.23   Q 504.30 571.93 509.74 567.01   Q 517.37 560.10 523.75 552.10   L 528.95 546.74   L 534.57 541.65   Q 538.16 538.03 541.80 534.65   Q 546.89 529.94 549.08 527.73   Q 585.68 490.96 607.24 469.61   Q 632.00 445.10 661.71 414.85   Q 682.34 393.86 716.39 360.27   C 723.66 353.11 731.93 344.23 739.05 337.39   Q 748.47 328.33 756.29 320.45   Q 780.49 296.06 793.86 283.33   Q 799.42 278.04 802.48 273.93   L 809.60 266.83   Q 813.56 263.72 810.13 261.42   Q 810.06 259.38 808.35 257.39   Q 805.83 254.46 804.25 253.00   Q 784.05 234.30 775.06 225.19   Q 766.05 216.07 758.32 207.83   C 755.76 205.10 751.40 201.45 749.11 199.12   Q 732.04 181.71 716.63 166.80   Q 710.23 160.62 685.58 134.83   C 682.39 131.50 680.25 129.83 675.97 129.32   C 665.95 128.12 656.06 126.74 650.30 117.38   Q 645.10 108.93 645.76 99.06   A 5.14 4.60 58.5 0 1 645.94 98.07   Q 647.79 92.11 651.64 86.88   Q 655.52 81.61 661.16 79.45   Q 674.31 75.24 685.26 81.48   Q 688.29 83.20 690.98 86.16   Z   M 706.29 115.46   Q 705.88 115.70 705.90 116.22   Q 705.78 115.76 705.44 115.67   Q 704.86 115.52 704.56 115.74   A 1.15 1.15 0.0 0 0 704.31 117.38   Q 705.65 119.12 707.41 120.81   Q 712.44 126.26 717.62 131.88   Q 724.07 138.86 729.21 143.65   C 738.98 152.76 745.99 160.88 755.65 170.17   Q 761.07 175.39 770.20 184.74   Q 781.04 195.84 792.20 206.58   Q 808.35 223.74 825.11 240.24   C 826.58 241.68 827.96 242.41 829.15 243.70   A 2.29 2.29 0.0 0 0 832.38 243.81   C 837.87 238.65 844.21 232.80 848.73 228.27   Q 900.33 176.56 952.06 124.81   L 955.78 120.32   Q 958.23 119.20 959.21 116.95   A 0.87 0.86 1.4 0 0 958.11 115.80   Q 957.60 115.98 957.11 116.72   L 956.96 116.05   Q 956.71 115.16 956.05 115.38   Q 955.03 115.32 954.00 115.80   C 949.88 115.85 945.60 115.46 941.66 115.41   Q 912.40 115.07 881.71 115.24   C 830.65 115.54 804.88 115.41 741.25 115.38   Q 733.32 115.38 712.75 115.13   C 711.48 115.12 707.45 113.77 706.29 115.46   Z   M 973.31 388.38   L 977.61 392.93   A 0.60 0.59 -58.3 0 0 978.61 392.69   Q 979.36 390.20 978.38 388.40   L 978.75 388.01   A 1.12 1.11 -25.8 0 0 979.04 387.19   C 978.69 380.36 979.31 374.68 979.29 366.33   Q 979.01 252.19 979.51 160.75   C 979.55 153.69 978.83 145.06 978.83 137.23   Q 978.83 136.83 978.04 136.50   Q 977.35 135.91 976.04 136.34   Q 974.52 136.21 973.15 136.68   A 1.82 1.76 8.8 0 0 972.37 137.23   Q 965.30 145.96 957.07 153.57   C 949.43 160.61 941.95 169.20 934.63 176.47   Q 894.12 216.68 877.11 233.84   Q 870.01 240.99 865.01 245.77   Q 855.59 254.75 853.07 257.84   Q 851.85 259.33 850.73 265.25   A 0.91 0.89 27.2 0 0 851.00 266.07   Q 862.07 276.47 872.42 287.58   Q 877.23 292.75 884.96 299.80   C 893.48 307.56 902.73 317.55 910.75 325.46   Q 931.93 346.34 940.80 355.63   C 946.42 361.52 953.84 368.23 960.06 374.03   Q 963.49 377.22 966.88 381.02   Q 970.19 384.72 973.31 388.38   Z   M 363.57 457.71   Q 363.24 458.31 363.24 459.00   Q 363.04 561.44 363.16 665.50   Q 363.18 689.46 363.00 699.70   Q 362.96 702.31 362.76 704.30   Q 362.47 707.18 362.35 709.41   A 0.70 0.70 0.0 0 0 363.15 710.14   L 363.55 710.09   Q 363.25 710.44 363.48 710.74   Q 363.66 710.99 364.10 711.00   Q 366.29 711.07 366.94 708.49   Q 370.84 706.54 374.30 702.32   Q 383.69 694.03 386.11 691.37   Q 388.61 688.63 389.84 687.87   A 1.69 1.68 -83.8 0 0 390.20 687.58   Q 396.07 681.16 405.11 672.08   Q 405.82 671.37 432.52 644.77   Q 462.39 615.02 488.51 588.51   Q 490.37 586.62 492.36 584.39   Q 493.36 583.26 492.65 581.93   Q 492.27 581.21 491.25 581.44   Q 491.05 580.03 490.39 579.35   C 487.00 575.82 484.08 572.63 480.99 569.74   Q 464.41 554.28 448.63 538.24   C 440.38 529.85 429.94 520.35 423.40 513.40   C 412.68 502.02 400.97 490.89 389.95 479.59   Q 384.61 474.11 370.35 459.65   Q 369.70 458.99 367.12 457.81   Q 366.57 455.93 364.98 455.86   Q 363.51 455.80 363.57 457.71   Z   M 385.96 727.39   Q 384.26 727.73 384.03 730.03   A 0.63 0.62 -80.4 0 0 384.50 730.70   Q 385.80 731.02 386.99 730.10   L 388.54 730.14   L 389.77 730.19   Q 397.72 731.35 402.25 731.28   Q 464.08 730.23 482.00 730.22   Q 567.04 730.13 590.75 730.02   Q 599.18 729.98 606.89 730.16   Q 611.38 731.90 616.17 730.53   L 627.60 730.20   L 639.09 730.30   A 0.83 0.83 0.0 0 0 639.83 729.09   Q 638.74 726.98 636.86 725.74   Q 632.66 721.30 628.32 717.22   Q 621.11 710.43 620.56 709.90   C 594.99 684.62 574.11 663.32 552.11 641.72   Q 533.33 623.30 522.60 612.24   C 519.17 608.71 517.43 606.48 514.82 603.26   A 2.96 2.93 81.2 0 0 513.67 602.41   C 510.17 601.00 507.37 602.38 504.79 605.44   Q 495.47 616.48 480.72 630.72   C 470.90 640.20 461.46 650.68 452.86 658.85   Q 449.88 661.67 432.13 680.11   C 421.59 691.06 410.24 700.94 400.30 712.33   A 9.39 9.34 3.0 0 1 398.59 713.86   Q 390.47 719.54 385.96 727.39   Z"/>
<path xmlns="http://www.w3.org/2000/svg" fill="#2c7cf9" d="   M 358.62 78.50   Q 363.24 79.43 367.55 82.67   C 369.48 84.11 370.20 85.82 371.48 87.66   A 4.15 4.07 87.9 0 0 372.63 88.75   C 377.51 91.85 381.47 90.87 388.66 90.49   Q 392.78 90.28 398.34 90.30   Q 453.30 90.48 503.25 90.45   Q 537.31 90.42 571.21 90.21   Q 583.62 91.25 596.13 90.44   Q 597.79 90.53 599.10 91.63   A 1.84 1.77 10.2 0 1 599.65 92.39   C 602.09 98.76 601.73 106.81 600.79 113.40   A 1.44 1.44 0.0 0 1 599.72 114.60   C 595.33 115.74 591.27 115.07 586.95 115.05   Q 571.83 114.99 537.75 115.27   Q 499.50 115.58 393.00 115.23   Q 390.74 115.22 387.06 114.29   A 0.99 0.98 -2.9 0 0 385.89 115.58   L 387.76 120.77   A 2.10 1.94 -79.0 0 0 388.21 121.50   Q 420.75 154.98 445.91 179.67   C 453.78 187.39 461.29 195.72 469.56 203.58   Q 474.19 207.99 482.20 216.58   Q 493.61 228.83 495.26 230.72   C 498.54 234.48 502.63 236.99 506.78 237.20   Q 513.98 237.58 515.70 237.88   Q 532.54 240.84 537.14 257.35   Q 537.83 259.83 537.12 267.47   Q 536.13 278.21 526.12 284.10   Q 523.01 285.93 523.02 290.51   Q 523.34 432.77 523.11 540.00   Q 523.10 543.19 522.52 547.99   Q 522.45 548.57 522.97 549.74   Q 523.12 550.11 523.49 550.30   Q 522.74 551.68 523.75 552.10   Q 517.37 560.10 509.74 567.01   Q 504.30 571.93 503.02 573.23   Q 498.21 578.09 496.39 579.63   A 0.79 0.79 0.0 0 1 495.10 578.95   L 496.79 561.51   A 4.62 4.56 44.6 0 0 496.78 560.71   Q 496.18 555.76 496.97 551.04   Q 498.02 551.12 498.19 550.20   Q 498.42 548.90 497.55 548.33   Q 497.94 548.37 498.25 548.29   Q 498.41 548.25 498.45 548.11   Q 498.50 547.95 498.45 547.80   L 498.38 545.29   L 498.34 544.29   Q 498.53 527.63 498.18 496.50   Q 497.99 479.56 498.03 391.91   C 498.05 367.64 498.85 341.40 498.22 319.29   C 498.03 312.60 498.61 305.43 498.89 297.17   A 0.91 0.90 78.4 0 0 497.61 296.32   C 496.30 296.93 495.35 298.13 494.06 298.42   C 490.89 299.12 489.43 301.84 487.23 304.08   Q 465.87 325.87 436.38 355.87   Q 432.37 359.95 429.75 362.50   Q 417.32 374.57 397.68 394.43   Q 392.16 400.00 386.53 405.79   C 384.20 408.19 382.07 409.66 379.93 411.72   A 3.08 3.02 82.0 0 0 379.34 412.52   L 377.47 416.32   Q 376.55 411.18 373.71 408.28   C 366.37 400.76 357.95 396.11 346.52 398.49   Q 340.53 399.74 339.66 399.78   A 0.76 0.75 -81.4 0 0 338.98 400.29   Q 338.81 400.80 338.27 401.27   Q 334.88 404.21 332.15 406.42   A 2.50 2.49 -4.3 0 0 331.53 407.14   Q 330.28 409.27 328.63 409.96   Q 330.66 406.09 334.18 403.69   Q 336.59 402.05 337.32 400.75   Q 338.85 397.99 338.76 395.24   Q 338.11 374.42 338.10 371.00   Q 337.99 327.03 337.81 174.76   Q 337.80 166.10 338.01 153.75   Q 338.19 142.84 337.65 128.59   C 337.48 124.22 335.44 122.76 332.36 120.67   A 6.44 6.38 -1.6 0 1 330.96 119.36   Q 324.24 110.79 325.51 99.72   Q 327.43 97.21 328.24 93.97   A 3.02 2.96 69.7 0 1 328.67 93.01   Q 330.55 90.25 332.11 87.36   Q 333.48 84.83 337.07 82.34   Q 346.03 76.11 358.62 78.50   Z   M 363.26 389.07   L 363.95 389.29   Q 363.38 390.25 364.00 391.00   A 1.10 1.10 0.0 0 0 365.54 391.18   Q 367.62 389.57 368.62 387.56   L 370.18 386.81   A 1.76 1.65 -81.5 0 0 370.75 386.36   Q 376.13 379.88 381.40 374.89   Q 390.37 366.41 397.09 359.08   Q 398.82 357.20 400.63 355.47   Q 401.72 355.44 402.32 354.85   Q 437.92 319.43 473.86 284.36   Q 477.97 280.35 482.18 276.44   Q 486.12 272.78 485.27 268.64   Q 485.68 264.40 485.32 259.83   Q 484.84 253.82 480.27 249.49   C 472.76 242.37 463.68 234.15 456.37 226.64   C 443.45 213.35 432.84 203.39 419.30 189.35   Q 406.52 176.10 386.39 156.04   C 380.77 150.44 374.92 143.89 370.10 138.65   Q 369.19 137.66 366.54 136.92   Q 366.20 136.39 365.27 136.78   Q 364.20 136.11 363.56 136.09   A 1.05 1.05 0.0 0 0 362.49 137.33   C 363.75 144.21 363.11 153.03 363.12 157.75   Q 363.35 278.70 363.16 379.69   Q 363.15 382.28 362.21 386.99   Q 361.94 388.34 363.26 389.07   Z"/>
<path xmlns="http://www.w3.org/2000/svg" fill="#659ef9" d="   M 733.11 90.15   Q 723.06 91.57 713.02 90.80   Q 710.15 90.58 702.00 91.61   Q 697.45 92.20 693.18 88.97   Q 697.85 90.72 699.54 90.64   Q 716.23 89.83 733.11 90.15   Z"/>
<path xmlns="http://www.w3.org/2000/svg" fill="#659ef9" d="   M 596.13 90.44   Q 583.62 91.25 571.21 90.21   Q 583.65 89.52 596.13 90.44   Z"/>
<path xmlns="http://www.w3.org/2000/svg" fill="#0b1832" d="   M 956.05 115.38   L 954.00 115.80   Q 955.03 115.32 956.05 115.38   Z"/>
<path xmlns="http://www.w3.org/2000/svg" fill="#659ef9" d="   M 705.90 116.22   L 706.18 116.82   L 707.41 120.81   Q 705.65 119.12 704.31 117.38   A 1.15 1.15 0.0 0 1 704.56 115.74   Q 704.86 115.52 705.44 115.67   Q 705.78 115.76 705.90 116.22   Z"/>
<path xmlns="http://www.w3.org/2000/svg" fill="#0b1832" d="   M 706.29 115.46   L 706.18 116.82   L 705.90 116.22   Q 705.88 115.70 706.29 115.46   Z"/>
<path xmlns="http://www.w3.org/2000/svg" fill="#659ef9" d="   M 955.78 120.32   L 956.61 117.55   L 957.11 116.72   Q 957.60 115.98 958.11 115.80   A 0.87 0.86 1.4 0 1 959.21 116.95   Q 958.23 119.20 955.78 120.32   Z"/>
<path xmlns="http://www.w3.org/2000/svg" fill="#0b1832" d="   M 956.96 116.05   L 957.11 116.72   L 956.61 117.55   Q 956.62 116.79 956.96 116.05   Z"/>
<path xmlns="http://www.w3.org/2000/svg" fill="#659ef9" d="   M 952.06 124.81   Q 900.33 176.56 848.73 228.27   C 844.21 232.80 837.87 238.65 832.38 243.81   A 2.29 2.29 0.0 0 1 829.15 243.70   C 827.96 242.41 826.58 241.68 825.11 240.24   Q 808.35 223.74 792.20 206.58   L 827.69 241.93   A 2.60 2.60 0.0 0 0 830.34 242.56   C 833.53 241.49 835.68 240.10 838.34 237.43   Q 874.21 201.51 879.30 196.58   Q 886.77 189.35 907.99 167.72   C 918.90 156.60 931.36 144.83 943.46 132.32   Q 947.46 128.18 952.06 124.81   Z"/>
<path xmlns="http://www.w3.org/2000/svg" fill="#0b1832" d="   M 978.04 136.50   L 976.04 136.34   Q 977.35 135.91 978.04 136.50   Z"/>
<path xmlns="http://www.w3.org/2000/svg" fill="#0e51ca" d="   M 366.54 136.92   L 365.27 136.78   Q 366.20 136.39 366.54 136.92   Z"/>
<path xmlns="http://www.w3.org/2000/svg" fill="#659ef9" d="   M 809.60 266.83   Q 810.65 264.88 810.13 261.42   Q 813.56 263.72 809.60 266.83   Z"/>
<path xmlns="http://www.w3.org/2000/svg" fill="#659ef9" d="   M 843.89 271.91   Q 842.15 273.49 841.40 275.11   A 0.71 0.70 -77.6 0 0 842.04 276.11   L 843.19 276.11   A 1.18 1.17 -81.2 0 0 844.31 275.29   L 845.05 273.05   Q 845.33 272.55 845.82 272.60   A 0.16 0.15 -88.1 0 1 845.96 272.76   L 846.12 291.85   A 0.87 0.53 -50.2 0 1 846.09 292.06   Q 845.62 293.63 845.94 295.52   L 845.13 294.55   A 0.26 0.26 0.0 0 0 844.69 294.62   Q 844.06 296.14 844.08 296.75   C 844.35 306.01 843.64 314.84 843.63 323.75   Q 843.63 327.91 843.64 358.25   Q 843.68 476.01 843.35 552.25   Q 843.32 557.56 845.34 561.09   A 4.37 4.32 5.7 0 0 846.31 562.26   Q 846.85 562.72 851.01 565.86   C 853.40 567.68 855.27 571.93 855.89 575.67   Q 856.66 580.37 857.03 587.00   C 857.25 591.12 858.90 594.05 861.93 597.18   Q 870.54 606.08 877.77 613.06   C 891.93 626.72 906.76 642.02 917.79 652.52   C 932.31 666.35 945.74 680.91 960.23 694.22   C 965.35 698.92 968.48 703.26 972.90 709.22   A 1.11 1.11 0.0 0 0 974.14 709.61   C 977.81 708.41 978.34 704.96 978.50 700.85   Q 979.00 687.61 978.92 638.26   Q 978.83 588.65 978.83 523.01   Q 978.83 514.94 978.24 500.00   Q 978.20 499.17 979.93 493.55   A 0.71 0.71 0.0 0 1 980.67 493.05   Q 986.49 493.60 993.80 492.96   C 997.85 492.60 1003.51 494.24 1003.52 499.23   Q 1003.69 583.47 1003.51 715.00   C 1003.50 719.65 1006.86 722.77 1010.51 725.47   Q 1012.75 727.11 1014.79 731.71   Q 1017.46 737.71 1016.72 745.46   C 1016.24 750.44 1013.60 755.90 1010.93 759.91   C 1007.73 764.72 1000.19 768.67 994.42 769.34   Q 983.24 770.65 974.76 762.96   A 2.17 2.10 -89.0 0 1 974.47 762.65   L 970.96 758.07   A 2.90 2.85 -5.5 0 0 969.91 757.22   Q 966.06 755.43 964.30 755.48   Q 948.82 755.88 915.63 755.71   Q 906.48 755.66 866.91 755.76   Q 825.55 755.86 770.10 755.55   C 762.49 755.51 755.81 755.04 748.52 755.46   Q 746.51 755.58 742.28 754.30   A 1.30 1.30 0.0 0 1 741.42 753.48   C 739.16 746.74 739.68 739.92 740.15 732.63   A 1.29 1.28 -3.8 0 1 741.19 731.45   Q 750.45 729.61 760.75 729.66   Q 837.00 730.03 907.49 729.68   C 919.44 729.62 935.42 730.36 947.50 729.88   Q 950.42 729.76 954.50 727.78   Q 954.91 727.70 955.04 727.27   L 955.35 727.04   Q 955.67 727.28 955.82 726.74   Q 955.94 726.33 955.73 725.94   Q 955.57 724.78 954.07 723.43   C 949.36 719.18 944.97 715.80 941.08 711.53   Q 934.55 704.34 925.53 695.62   Q 913.39 683.87 894.96 665.23   C 879.03 649.10 859.41 630.57 843.47 612.76   Q 842.42 611.58 839.36 610.68   C 833.83 609.03 822.65 607.75 818.36 612.36   C 808.45 623.03 799.44 631.39 789.96 641.20   C 763.43 668.66 738.79 692.38 719.15 713.09   Q 714.29 718.21 704.93 727.32   C 702.79 729.41 701.09 730.44 699.10 732.17   A 2.62 2.59 -14.2 0 0 698.26 733.56   L 697.14 738.50   C 696.58 738.02 696.13 737.15 696.30 736.41   Q 697.04 733.21 695.35 730.91   Q 689.94 723.53 681.56 719.19   Q 680.47 718.62 675.96 717.66   L 681.29 716.66   A 3.60 3.57 -77.7 0 0 683.56 715.19   Q 686.61 710.83 687.67 709.66   Q 695.64 700.85 703.75 692.49   Q 733.34 662.00 761.29 634.22   C 768.43 627.12 775.53 620.90 782.04 613.62   C 784.57 610.79 787.85 607.85 790.84 605.09   Q 792.08 603.96 792.76 602.47   L 792.97 601.70   Q 792.73 600.71 792.98 599.98   Q 794.25 599.34 794.65 598.02   Q 795.34 597.39 795.65 596.69   A 0.44 0.44 0.0 0 0 795.25 596.08   C 793.94 596.08 792.81 596.44 791.21 596.33   Q 779.60 595.53 768.20 595.64   C 746.24 595.87 736.78 595.48 708.00 595.78   Q 671.03 596.16 558.48 595.53   C 554.07 595.50 550.59 595.95 546.60 595.61   A 0.65 0.65 0.0 0 0 546.07 596.70   Q 547.45 598.20 548.12 600.26   L 547.96 600.70   A 0.33 0.32 -57.2 0 1 547.43 600.82   L 530.28 583.67   A 0.87 0.87 0.0 0 1 530.24 582.48   Q 536.13 575.84 542.47 570.85   A 3.71 3.53 88.6 0 0 543.27 569.97   Q 545.05 567.22 546.83 567.24   L 546.21 569.74   L 545.53 570.44   A 0.43 0.43 0.0 0 0 545.97 571.15   L 546.29 571.05   L 548.20 570.52   Q 549.18 570.69 550.04 570.29   C 563.15 571.37 579.87 570.39 589.11 570.46   C 599.89 570.54 611.09 570.11 621.30 570.11   C 676.88 570.12 729.13 569.62 777.25 569.67   Q 784.84 569.68 802.52 570.20   A 4.33 4.32 -50.2 0 0 803.49 570.11   C 808.13 569.08 812.50 565.34 815.95 562.07   A 4.57 4.39 -6.0 0 0 816.60 561.30   C 819.54 556.82 818.81 552.66 818.77 547.50   Q 818.09 447.73 818.54 351.66   C 818.61 337.98 818.09 319.27 818.41 303.04   L 818.75 299.43   L 819.71 296.46   A 0.41 0.41 0.0 0 0 819.09 296.00   Q 817.88 296.86 816.20 297.30   Q 815.72 297.30 815.77 296.70   A 0.64 0.64 0.0 0 1 815.94 296.32   C 821.02 290.99 828.85 282.88 836.56 276.61   Q 841.27 272.78 846.59 267.65   A 0.33 0.33 0.0 0 1 847.14 267.93   Q 846.70 271.07 843.89 271.91   Z"/>
<path xmlns="http://www.w3.org/2000/svg" fill="#659ef9" d="   M 400.63 355.47   Q 436.23 319.88 472.01 284.51   Q 474.38 282.18 482.24 274.98   Q 483.66 273.67 485.27 268.64   Q 486.12 272.78 482.18 276.44   Q 477.97 280.35 473.86 284.36   Q 437.92 319.43 402.32 354.85   Q 401.72 355.44 400.63 355.47   Z"/>
<path xmlns="http://www.w3.org/2000/svg" fill="#659ef9" d="   M 802.48 273.93   Q 799.42 278.04 793.86 283.33   Q 780.49 296.06 756.29 320.45   Q 748.47 328.33 739.05 337.39   C 731.93 344.23 723.66 353.11 716.39 360.27   Q 682.34 393.86 661.71 414.85   Q 632.00 445.10 607.24 469.61   Q 585.68 490.96 549.08 527.73   Q 546.89 529.94 541.80 534.65   Q 538.16 538.03 534.57 541.65   Q 538.55 536.25 540.57 534.57   C 546.88 529.34 552.67 523.19 558.05 517.66   Q 561.96 513.62 606.20 469.55   Q 625.21 450.61 654.19 421.31   Q 699.38 375.63 741.96 333.46   C 757.09 318.47 769.95 305.28 784.04 291.68   Q 793.21 282.83 802.48 273.93   Z"/>
<path xmlns="http://www.w3.org/2000/svg" fill="#0b1832" d="   M 814.46 297.80   Q 814.03 297.92 813.52 297.89   L 814.46 297.80   Z"/>
<path xmlns="http://www.w3.org/2000/svg" fill="#0b1832" d="   M 849.71 299.16   Q 848.82 299.24 848.50 298.79   Q 849.10 298.57 849.71 299.16   Z"/>
<path xmlns="http://www.w3.org/2000/svg" fill="#0b1832" d="   M 818.75 299.43   L 818.41 303.04   Q 818.12 301.07 818.75 299.43   Z"/>
<path xmlns="http://www.w3.org/2000/svg" fill="#659ef9" d="   M 368.62 387.56   Q 367.62 389.57 365.54 391.18   A 1.10 1.10 0.0 0 1 364.00 391.00   Q 363.38 390.25 363.95 389.29   Q 364.00 389.15 364.04 389.01   Q 364.13 389.02 364.21 389.03   Q 364.90 389.00 365.30 388.52   L 368.62 387.56   Z"/>
<path xmlns="http://www.w3.org/2000/svg" fill="#659ef9" d="   M 976.99 388.73   L 978.04 388.57   Q 978.21 388.49 978.38 388.40   Q 979.36 390.20 978.61 392.69   A 0.60 0.59 -58.3 0 1 977.61 392.93   L 973.31 388.38   Q 975.41 388.27 976.99 388.73   Z"/>
<path xmlns="http://www.w3.org/2000/svg" fill="#0b1832" d="   M 365.30 388.52   Q 364.90 389.00 364.21 389.03   Q 364.70 388.63 365.30 388.52   Z"/>
<path xmlns="http://www.w3.org/2000/svg" fill="#0b1832" d="   M 978.04 388.57   L 976.99 388.73   Q 977.49 388.53 978.04 388.57   Z"/>
<path xmlns="http://www.w3.org/2000/svg" fill="#0b1832" d="   M 364.04 389.01   Q 364.00 389.15 363.95 389.29   L 363.26 389.07   L 364.04 389.01   Z"/>
<path xmlns="http://www.w3.org/2000/svg" fill="#0b1832" d="   M 337.87 451.55   Q 337.91 450.98 337.73 450.55   Q 337.98 450.85 337.87 451.55   Z"/>
<path xmlns="http://www.w3.org/2000/svg" fill="#0b1832" d="   M 337.87 453.82   L 337.88 458.50   L 337.87 453.82   Z"/>
<path xmlns="http://www.w3.org/2000/svg" fill="#659ef9" d="   M 367.12 457.81   L 364.97 457.12   Q 364.00 456.71 364.20 457.29   Q 363.84 457.46 363.57 457.71   Q 363.51 455.80 364.98 455.86   Q 366.57 455.93 367.12 457.81   Z"/>
<path xmlns="http://www.w3.org/2000/svg" fill="#0b1832" d="   M 364.97 457.12   L 364.20 457.29   Q 364.00 456.71 364.97 457.12   Z"/>
<path xmlns="http://www.w3.org/2000/svg" fill="#0b1832" d="   M 337.79 485.53   L 337.86 488.29   L 337.79 485.53   Z"/>
<path xmlns="http://www.w3.org/2000/svg" fill="#0b1832" d="   M 337.86 488.57   L 337.87 503.99   L 337.86 488.57   Z"/>
<path xmlns="http://www.w3.org/2000/svg" fill="#0b1832" d="   M 337.87 506.54   L 337.86 508.29   L 337.87 506.54   Z"/>
<path xmlns="http://www.w3.org/2000/svg" fill="#0b1832" d="   M 498.38 545.29   L 498.34 544.29   L 498.38 545.29   Z"/>
<path xmlns="http://www.w3.org/2000/svg" fill="#659ef9" d="   M 528.95 546.74   L 523.75 552.10   Q 522.74 551.68 523.49 550.30   Q 523.82 549.78 524.00 549.88   Q 526.14 547.65 528.95 546.74   Z"/>
<path xmlns="http://www.w3.org/2000/svg" fill="#659ef9" d="   M 494.27 547.15   L 496.76 548.01   L 497.55 548.33   Q 498.42 548.90 498.19 550.20   Q 498.02 551.12 496.97 551.04   Q 494.89 549.35 494.27 547.15   Z"/>
<path xmlns="http://www.w3.org/2000/svg" fill="#0b1832" d="   M 498.45 547.80   Q 498.50 547.95 498.45 548.11   Q 498.41 548.25 498.25 548.29   Q 497.94 548.37 497.55 548.33   L 496.76 548.01   Q 498.08 548.19 498.45 547.80   Z"/>
<path xmlns="http://www.w3.org/2000/svg" fill="#0b1832" d="   M 524.00 549.88   Q 523.82 549.78 523.49 550.30   Q 523.12 550.11 522.97 549.74   Q 523.50 549.63 524.00 549.88   Z"/>
<path xmlns="http://www.w3.org/2000/svg" fill="#0e51ca" d="   M 546.21 569.74   Q 545.57 571.20 546.29 571.05   L 545.97 571.15   A 0.43 0.43 0.0 0 1 545.53 570.44   L 546.21 569.74   Z"/>
<path xmlns="http://www.w3.org/2000/svg" fill="#0e51ca" d="   M 550.04 570.29   Q 549.18 570.69 548.20 570.52   Q 548.97 569.95 550.04 570.29   Z"/>
<path xmlns="http://www.w3.org/2000/svg" fill="#659ef9" d="   M 374.30 702.32   C 379.27 696.67 386.36 690.24 390.14 686.46   Q 415.85 660.69 438.15 637.90   C 445.85 630.02 453.13 623.26 460.97 615.05   Q 474.45 600.93 488.86 587.36   Q 490.29 586.02 491.25 581.44   Q 492.27 581.21 492.65 581.93   Q 493.36 583.26 492.36 584.39   Q 490.37 586.62 488.51 588.51   Q 462.39 615.02 432.52 644.77   Q 405.82 671.37 405.11 672.08   Q 396.07 681.16 390.20 687.58   A 1.69 1.68 -83.8 0 1 389.84 687.87   Q 388.61 688.63 386.11 691.37   Q 383.69 694.03 374.30 702.32   Z"/>
<path xmlns="http://www.w3.org/2000/svg" fill="#0b1832" d="   M 794.65 598.02   Q 794.25 599.34 792.98 599.98   L 794.65 598.02   Z"/>
<path xmlns="http://www.w3.org/2000/svg" fill="#0b1832" d="   M 792.97 601.70   L 792.76 602.47   Q 792.75 602.04 792.97 601.70   Z"/>
<path xmlns="http://www.w3.org/2000/svg" fill="#659ef9" d="   M 366.94 708.49   Q 366.29 711.07 364.10 711.00   Q 363.66 710.99 363.48 710.74   Q 363.25 710.44 363.55 710.09   L 366.94 708.49   Z"/>
<path xmlns="http://www.w3.org/2000/svg" fill="#659ef9" d="   M 627.60 730.20   Q 635.84 729.99 636.86 725.74   Q 638.74 726.98 639.83 729.09   A 0.83 0.83 0.0 0 1 639.09 730.30   L 627.60 730.20   Z"/>
<path xmlns="http://www.w3.org/2000/svg" fill="#0b1832" d="   M 955.73 725.94   Q 955.94 726.33 955.82 726.74   Q 955.67 727.28 955.35 727.04   Q 955.38 726.46 955.73 725.94   Z"/>
<path xmlns="http://www.w3.org/2000/svg" fill="#659ef9" d="   M 385.96 727.39   Q 386.42 729.84 386.99 730.10   Q 385.80 731.02 384.50 730.70   A 0.63 0.62 -80.4 0 1 384.03 730.03   Q 384.26 727.73 385.96 727.39   Z"/>
<path xmlns="http://www.w3.org/2000/svg" fill="#0e51ca" d="   M 955.04 727.27   Q 954.91 727.70 954.50 727.78   Q 954.71 727.45 955.04 727.27   Z"/>
<path xmlns="http://www.w3.org/2000/svg" fill="#0b1832" d="   M 389.77 730.19   L 388.54 730.14   Q 389.19 730.03 389.77 730.19   Z"/>
<path xmlns="http://www.w3.org/2000/svg" fill="#2c7cf9" d="   M 616.17 730.53   Q 611.38 731.90 606.89 730.16   L 616.17 730.53   Z"/>
<path xmlns="http://www.w3.org/2000/svg" fill="#0b1832" d="   M 1227.44 1004.47   Q 1227.92 1003.87 1227.83 1003.50   Q 1227.70 1002.91 1227.01 1003.33   Q 1226.11 1003.87 1225.94 1005.10   L 1216.33 1012.41   Q 1216.27 1012.45 1216.21 1012.49   Q 1207.43 1017.15 1199.69 1018.65   Q 1175.19 1023.42 1152.25 1011.80   Q 1149.97 1010.65 1144.65 1006.43   Q 1141.08 1003.59 1137.98 999.94   C 1130.34 990.93 1125.18 980.01 1123.53 968.44   C 1122.87 963.83 1121.84 959.94 1121.72 955.75   C 1121.53 949.21 1122.45 943.76 1124.06 937.19   Q 1130.09 912.54 1149.53 899.52   Q 1161.80 891.30 1179.12 890.18   Q 1183.21 890.18 1187.34 890.28   C 1191.93 890.39 1196.63 891.24 1201.39 891.70   Q 1207.58 892.70 1213.23 895.75   C 1216.67 897.61 1219.88 900.63 1223.18 903.21   L 1225.62 906.87   A 0.51 0.51 0.0 0 0 1226.55 906.55   L 1226.38 903.98   Q 1226.83 903.26 1226.85 902.50   Q 1227.71 874.17 1226.78 844.51   C 1226.70 841.87 1228.80 841.85 1230.93 842.14   C 1239.16 843.24 1249.08 841.81 1254.66 842.15   A 2.56 2.55 6.3 0 1 1257.03 845.10   Q 1256.08 850.86 1256.57 861.23   Q 1256.93 868.81 1256.84 877.77   C 1256.58 905.70 1257.24 941.77 1256.75 976.44   Q 1256.52 992.44 1256.52 1001.74   C 1256.52 1006.40 1258.00 1012.11 1256.40 1016.55   A 2.53 2.53 0.0 0 1 1253.81 1018.21   Q 1245.84 1017.52 1237.95 1018.55   A 2.80 1.96 -36.5 0 1 1237.56 1018.56   L 1230.14 1017.96   A 1.54 1.52 85.5 0 1 1228.78 1016.79   Q 1227.40 1011.01 1228.17 1005.50   Q 1228.28 1004.67 1227.44 1004.47   Z   M 1189.33 994.59   C 1200.80 994.69 1211.34 989.69 1218.37 981.35   C 1224.43 974.17 1227.57 963.85 1227.01 954.76   Q 1226.49 946.37 1225.10 941.56   Q 1218.71 919.55 1196.02 915.91   Q 1193.02 915.43 1190.07 915.40   Q 1187.12 915.38 1184.10 915.80   Q 1161.35 919.01 1154.55 940.90   Q 1153.07 945.68 1152.39 954.06   C 1151.67 963.14 1154.61 973.52 1160.54 980.81   C 1167.40 989.28 1177.85 994.48 1189.33 994.59   Z"/>
<path xmlns="http://www.w3.org/2000/svg" fill="#0b1832" d="   M 116.75 851.94   A 0.59 0.59 0.0 0 1 117.16 852.50   C 117.08 901.81 116.84 931.54 117.33 954.44   Q 117.39 957.45 119.52 965.41   Q 121.23 971.80 123.76 975.73   Q 130.23 985.83 140.40 990.02   Q 159.24 997.79 177.76 990.05   Q 183.82 987.52 188.19 983.76   C 195.21 977.71 199.31 966.61 200.67 957.48   Q 201.17 954.10 201.16 945.68   Q 201.08 875.99 201.02 859.75   Q 201.01 856.55 200.42 852.97   A 1.06 1.05 85.4 0 1 201.46 851.74   L 230.75 851.74   A 0.72 0.72 0.0 0 1 231.47 852.47   C 231.22 866.66 231.81 879.16 231.69 892.81   Q 231.48 917.31 231.66 940.00   Q 231.77 954.98 231.00 962.02   C 230.57 966.05 229.19 972.72 227.79 976.72   Q 215.79 1010.94 179.48 1018.43   Q 155.33 1023.41 132.44 1016.82   Q 112.18 1010.99 100.27 994.76   C 95.23 987.90 90.23 978.51 88.95 969.78   C 88.47 966.46 87.40 962.98 87.14 959.12   Q 86.66 951.86 86.69 941.50   Q 86.77 920.40 86.64 873.75   Q 86.63 870.68 86.21 865.29   Q 85.87 860.94 86.28 854.48   Q 86.48 851.34 89.50 851.58   Q 98.34 852.29 113.27 851.34   Q 114.73 851.25 116.75 851.94   Z"/>
<path xmlns="http://www.w3.org/2000/svg" fill="#659ef9" d="   M 1201.39 891.70   C 1196.63 891.24 1191.93 890.39 1187.34 890.28   Q 1183.21 890.18 1179.12 890.18   Q 1190.18 888.84 1201.39 891.70   Z"/>
<path xmlns="http://www.w3.org/2000/svg" fill="#0b1832" d="   M 298.16 907.93   Q 299.13 907.83 299.95 906.03   Q 301.96 903.49 303.01 902.76   Q 307.96 899.29 313.01 895.74   Q 315.37 894.08 323.05 892.12   Q 338.17 888.27 354.52 891.41   Q 361.99 892.85 369.29 897.21   Q 375.29 900.79 377.44 902.82   Q 390.41 915.09 392.85 933.05   Q 393.87 940.52 393.83 951.26   Q 393.69 983.23 393.85 1014.02   Q 393.86 1015.56 393.23 1017.59   A 0.80 0.79 5.0 0 1 392.56 1018.15   Q 386.76 1018.77 384.18 1018.39   C 377.92 1017.48 372.23 1018.06 365.45 1017.86   A 1.16 1.16 0.0 0 1 364.36 1016.96   C 364.06 1015.59 363.77 1014.01 363.77 1012.32   Q 363.93 961.87 364.00 954.50   C 364.15 938.57 361.56 921.29 343.01 916.97   C 335.58 915.24 328.20 916.07 320.95 918.22   Q 315.92 919.71 311.13 923.14   C 305.59 927.12 300.92 935.82 299.46 942.46   C 298.39 947.36 298.10 954.62 298.05 960.62   Q 297.78 989.67 298.15 1012.00   Q 298.19 1014.50 297.62 1017.40   A 0.88 0.87 5.9 0 1 296.75 1018.10   C 293.57 1018.05 290.79 1018.54 287.40 1018.22   Q 282.11 1017.71 273.51 1017.95   Q 272.55 1017.98 270.01 1017.61   A 0.96 0.95 84.7 0 1 269.26 1016.98   Q 268.42 1014.63 268.46 1013.00   Q 268.94 990.73 268.78 965.76   C 268.63 941.86 269.25 918.03 268.63 896.79   Q 268.57 894.66 268.12 892.84   A 0.89 0.89 0.0 0 1 268.98 891.73   L 297.50 891.73   A 0.80 0.80 0.0 0 1 298.27 892.76   Q 296.25 899.43 297.65 907.24   Q 297.77 907.94 298.16 907.93   Z"/>
<path xmlns="http://www.w3.org/2000/svg" fill="#0b1832" d="   M 458.06 907.62   Q 458.98 908.54 459.67 906.48   Q 463.93 902.23 468.89 898.71   Q 474.33 894.86 479.52 893.18   Q 489.74 889.88 499.26 889.91   Q 511.41 889.95 522.08 893.23   Q 524.81 894.07 532.02 898.41   C 543.24 905.16 550.37 917.67 552.85 930.11   C 554.57 938.70 554.96 948.28 554.86 957.68   Q 554.57 985.02 554.84 1013.00   Q 554.85 1013.90 554.25 1016.69   A 1.69 1.69 0.0 0 1 552.76 1018.02   Q 547.46 1018.54 544.41 1018.27   C 537.54 1017.66 532.95 1018.05 526.12 1017.72   A 0.92 0.92 0.0 0 1 525.27 1017.03   Q 524.68 1014.76 524.70 1013.00   Q 524.91 992.54 525.02 957.99   Q 525.05 947.16 522.76 936.97   C 519.58 922.76 508.71 916.40 494.80 916.05   C 491.19 915.96 488.28 916.89 484.75 917.38   C 479.19 918.13 472.16 921.98 468.87 925.60   Q 458.86 936.66 458.85 952.49   Q 458.84 1003.05 458.94 1009.25   Q 459.00 1013.44 458.20 1017.31   A 0.83 0.83 0.0 0 1 457.47 1017.97   Q 451.43 1018.64 447.25 1018.25   C 441.23 1017.69 436.09 1018.32 430.24 1017.74   A 1.07 1.06 86.1 0 1 429.32 1016.93   Q 428.74 1014.46 428.74 1011.75   Q 428.69 969.62 428.59 905.98   Q 428.58 898.42 427.81 892.44   A 0.65 0.65 0.0 0 1 428.46 891.71   L 457.84 891.71   A 0.87 0.87 0.0 0 1 458.65 892.90   Q 456.06 899.67 458.06 907.62   Z"/>
<path xmlns="http://www.w3.org/2000/svg" fill="#0b1832" d="   M 669.55 1005.79   L 669.68 1004.64   A 0.31 0.31 0.0 0 0 669.20 1004.34   Q 668.81 1004.59 668.96 1005.23   Q 668.50 1004.55 667.93 1004.73   A 0.38 0.37 -82.2 0 0 667.69 1004.92   Q 665.00 1009.97 659.58 1012.57   C 651.41 1016.50 645.02 1019.43 636.76 1019.75   Q 624.97 1020.21 615.29 1018.45   C 600.76 1015.82 588.62 1008.33 583.70 994.54   Q 581.22 987.58 581.39 980.78   C 581.60 972.66 585.96 961.63 592.22 956.25   C 601.67 948.15 611.87 945.33 624.00 944.26   Q 636.32 943.18 654.32 943.50   C 658.45 943.57 662.27 943.19 666.09 943.06   A 1.52 1.52 0.0 0 0 667.56 941.54   Q 667.53 921.73 649.02 915.76   C 638.85 912.49 628.92 914.03 618.28 917.39   Q 610.64 919.81 603.52 924.61   A 1.11 1.11 0.0 0 1 603.24 924.75   L 598.36 926.39   A 2.31 2.31 0.0 0 1 595.53 925.17   Q 591.29 916.11 586.16 909.04   A 1.35 1.32 -46.7 0 1 586.13 907.52   Q 587.67 905.17 590.23 903.49   C 606.60 892.77 624.49 889.37 644.04 890.18   Q 646.06 890.26 654.64 891.37   C 665.25 892.74 674.07 896.37 682.23 903.02   Q 683.45 904.01 687.01 908.30   C 692.35 914.72 696.21 925.13 697.08 931.97   Q 698.29 941.40 698.12 957.27   Q 697.79 989.51 698.23 1012.75   Q 698.28 1015.57 697.32 1017.70   A 0.85 0.84 7.9 0 1 696.68 1018.18   Q 691.41 1019.04 686.68 1018.33   C 682.43 1017.70 678.28 1018.62 674.02 1018.28   Q 672.01 1018.12 670.97 1017.10   A 1.28 1.27 -71.3 0 1 670.59 1016.32   L 669.55 1005.79   Z   M 668.25 965.16   A 1.20 1.20 0.0 0 0 667.06 963.80   Q 656.29 963.74 633.75 963.95   Q 626.47 964.02 621.09 966.20   C 613.96 969.08 609.65 977.06 611.50 984.67   C 612.96 990.68 618.67 994.68 624.46 996.48   C 636.51 1000.22 650.06 998.33 659.84 990.11   C 664.94 985.82 667.29 980.99 667.72 974.16   C 667.92 970.99 667.85 968.17 668.25 965.16   Z"/>
<path xmlns="http://www.w3.org/2000/svg" fill="#0b1832" d="   M 845.32 909.99   Q 845.07 910.50 845.31 910.79   A 0.95 0.95 0.0 0 0 846.83 910.70   Q 847.96 908.99 849.63 907.26   C 852.59 904.78 855.26 901.82 858.27 899.78   Q 864.30 895.67 869.77 893.78   Q 889.71 886.89 911.59 892.60   C 916.57 893.90 922.74 897.55 925.92 899.88   C 935.98 907.22 941.08 918.21 943.84 930.22   Q 945.16 936.00 945.19 947.38   Q 945.28 991.18 945.36 1013.19   C 945.38 1018.29 942.65 1018.55 938.21 1018.23   Q 930.48 1017.68 917.24 1018.16   A 1.17 1.16 86.1 0 1 916.04 1017.11   Q 915.70 1013.63 915.69 1012.50   Q 915.57 983.44 915.54 949.75   Q 915.53 941.09 912.99 933.49   C 910.10 924.81 902.09 917.93 892.74 916.68   Q 884.07 915.53 875.26 918.31   C 857.56 923.88 854.23 941.03 853.96 957.26   Q 853.92 959.95 853.70 1004.22   C 853.68 1008.88 854.32 1013.14 853.28 1017.41   A 0.62 0.62 0.0 0 1 852.68 1017.88   L 827.17 1017.88   A 1.71 1.71 0.0 0 1 825.58 1016.80   Q 824.52 1014.10 824.54 1011.49   Q 824.79 976.09 824.73 950.23   Q 824.71 937.90 819.44 928.32   Q 815.93 921.94 808.56 918.49   C 805.28 916.95 798.39 915.78 795.25 916.26   C 792.76 916.63 787.14 917.38 784.27 918.47   C 779.02 920.48 773.86 923.48 770.88 928.29   Q 767.63 933.54 765.95 938.70   C 764.42 943.40 763.94 950.13 763.87 955.83   Q 763.57 983.34 763.76 1013.75   Q 763.77 1015.68 763.25 1017.59   A 0.90 0.90 0.0 0 1 762.38 1018.26   L 736.58 1018.26   A 1.41 1.40 -8.3 0 1 735.23 1017.26   Q 734.20 1013.78 734.16 1011.54   Q 733.84 989.02 734.12 915.54   C 734.14 909.32 733.70 900.93 734.13 893.43   A 1.87 1.86 -88.4 0 1 735.99 891.67   L 762.74 891.67   A 1.10 1.09 -81.2 0 1 763.78 893.10   Q 761.90 899.06 763.38 905.26   Q 762.95 905.93 763.24 906.45   A 0.53 0.52 69.6 0 0 763.81 906.72   L 764.59 906.57   L 766.97 903.58   A 7.66 7.60 -86.0 0 1 768.98 901.82   C 773.28 899.26 777.11 895.68 781.56 894.09   Q 793.77 889.73 803.48 889.97   Q 809.63 890.13 819.50 892.28   C 826.52 893.82 835.20 898.13 840.21 904.28   C 841.03 905.28 843.08 908.61 845.32 909.99   Z"/>
<path xmlns="http://www.w3.org/2000/svg" fill="#0b1832" d="   M 1002.79 964.71   Q 1001.29 966.16 1003.62 968.72   Q 1004.70 975.05 1009.00 979.76   Q 1019.89 991.66 1035.77 994.61   Q 1042.99 995.95 1049.25 994.84   C 1059.79 992.95 1069.19 989.63 1076.46 981.68   A 1.87 1.87 0.0 0 1 1079.21 981.66   Q 1086.80 989.75 1094.11 996.60   Q 1095.57 997.97 1094.56 999.77   Q 1092.94 1002.64 1091.14 1003.86   Q 1089.01 1005.29 1081.69 1010.21   C 1073.58 1015.65 1060.80 1019.00 1052.02 1019.69   Q 1035.46 1020.98 1019.27 1017.04   Q 1000.04 1012.35 986.11 996.61   Q 980.19 989.93 977.30 982.07   C 974.43 974.25 972.15 968.16 971.62 960.09   C 970.44 941.93 976.32 922.51 988.78 909.62   Q 997.85 900.24 1010.47 895.01   C 1023.20 889.74 1037.62 889.31 1052.52 891.25   Q 1065.42 892.93 1076.30 900.52   C 1083.82 905.76 1091.21 913.63 1095.60 922.26   C 1099.83 930.60 1101.62 938.29 1103.05 947.61   Q 1104.30 955.73 1102.50 962.74   Q 1102.09 964.36 1100.38 964.07   Q 1100.04 964.01 1098.61 964.03   C 1075.81 964.28 1062.54 965.00 1044.47 964.52   Q 1030.01 964.14 1011.22 964.48   C 1008.75 964.53 1004.51 963.14 1002.79 964.71   Z   M 1002.46 942.33   Q 1001.88 942.56 1002.23 943.52   Q 1002.89 945.32 1004.07 944.67   Q 1010.61 945.13 1017.19 945.02   C 1034.59 944.71 1051.98 945.13 1069.31 944.85   Q 1071.36 944.82 1073.30 943.56   A 1.16 1.15 -12.7 0 0 1073.82 942.74   C 1074.37 938.82 1070.81 932.81 1068.86 929.13   C 1064.58 921.08 1054.76 915.99 1046.03 914.20   C 1036.90 912.33 1028.40 915.04 1020.05 918.80   Q 1011.79 922.52 1007.52 930.29   C 1005.77 933.46 1002.27 939.50 1002.46 942.33   Z"/>
<path xmlns="http://www.w3.org/2000/svg" fill="#659ef9" d="   M 1226.38 903.98   L 1226.55 906.55   A 0.51 0.51 0.0 0 1 1225.62 906.87   L 1223.18 903.21   L 1226.38 903.98   Z"/>
<path xmlns="http://www.w3.org/2000/svg" fill="#659ef9" d="   M 763.38 905.26   Q 764.09 905.62 764.59 906.57   L 763.81 906.72   A 0.53 0.52 69.6 0 1 763.24 906.45   Q 762.95 905.93 763.38 905.26   Z"/>
<path xmlns="http://www.w3.org/2000/svg" fill="#659ef9" d="   M 299.95 906.03   Q 299.13 907.83 298.16 907.93   Q 298.37 907.00 299.95 906.03   Z"/>
<path xmlns="http://www.w3.org/2000/svg" fill="#659ef9" d="   M 459.67 906.48   Q 458.98 908.54 458.06 907.62   Q 458.35 906.78 459.67 906.48   Z"/>
<path xmlns="http://www.w3.org/2000/svg" fill="#659ef9" d="   M 849.63 907.26   Q 847.96 908.99 846.83 910.70   A 0.95 0.95 0.0 0 1 845.31 910.79   Q 845.07 910.50 845.32 909.99   L 849.63 907.26   Z"/>
<path xmlns="http://www.w3.org/2000/svg" fill="#659ef9" d="   M 1002.46 942.33   Q 1002.71 943.89 1004.07 944.67   Q 1002.89 945.32 1002.23 943.52   Q 1001.88 942.56 1002.46 942.33   Z"/>
<path xmlns="http://www.w3.org/2000/svg" fill="#659ef9" d="   M 1002.79 964.71   L 1003.62 968.72   Q 1001.29 966.16 1002.79 964.71   Z"/>
<path xmlns="http://www.w3.org/2000/svg" fill="#659ef9" d="   M 1227.44 1004.47   Q 1226.84 1004.44 1225.94 1005.10   Q 1226.11 1003.87 1227.01 1003.33   Q 1227.70 1002.91 1227.83 1003.50   Q 1227.92 1003.87 1227.44 1004.47   Z"/>
<path xmlns="http://www.w3.org/2000/svg" fill="#659ef9" d="   M 669.55 1005.79   Q 669.16 1005.56 668.96 1005.23   Q 668.81 1004.59 669.20 1004.34   A 0.31 0.31 0.0 0 1 669.68 1004.64   L 669.55 1005.79   Z"/>
<ellipse xmlns="http://www.w3.org/2000/svg" fill="#0b1832" cx="0.00" cy="0.00" transform="translate(829.31,1062.55) rotate(-178.7)" rx="18.98" ry="17.88"/>
<path xmlns="http://www.w3.org/2000/svg" fill="#0b1832" d="   M 393.32 1198.52   A 1.22 1.22 0.0 0 0 394.56 1199.74   Q 436.45 1199.19 466.89 1199.48   Q 470.38 1199.52 475.38 1199.80   A 2.19 2.19 0.0 0 1 477.41 1201.56   L 478.38 1206.37   A 1.02 0.90 -48.6 0 1 478.38 1206.76   Q 477.41 1212.45 478.23 1221.20   Q 478.63 1225.51 474.52 1225.53   C 441.36 1225.65 408.98 1225.33 376.07 1225.38   C 371.75 1225.39 368.15 1224.97 363.86 1224.86   A 1.11 1.11 0.0 0 1 362.91 1224.26   Q 362.19 1222.83 362.22 1221.25   Q 362.53 1203.72 362.53 1203.50   Q 362.41 1153.39 362.42 1072.43   C 362.42 1068.47 361.93 1064.72 361.67 1060.81   A 0.77 0.77 0.0 0 1 362.44 1059.99   L 392.64 1059.99   A 0.68 0.67 -0.0 0 1 393.32 1060.66   L 393.32 1198.52   Z"/>
<path xmlns="http://www.w3.org/2000/svg" fill="#0b1832" d="   M 492.05 1140.25   C 499.51 1119.64 516.19 1105.76 537.09 1100.01   C 549.06 1096.71 562.80 1097.32 574.95 1099.85   Q 587.73 1102.51 598.35 1110.17   C 602.62 1113.25 607.78 1117.71 611.36 1122.52   C 625.46 1141.50 627.97 1165.42 620.27 1187.56   Q 617.23 1196.32 611.25 1203.14   Q 603.28 1212.22 596.43 1216.77   C 578.52 1228.66 554.99 1229.99 534.65 1224.53   Q 521.06 1220.89 510.05 1210.93   Q 485.05 1188.33 489.14 1153.99   Q 490.16 1145.47 492.05 1140.25   Z   M 558.3872 1122.5453   A 40.29 38.19 -87.6 0 0 518.5435 1161.2008   A 40.29 38.19 -87.6 0 0 555.0128 1203.0547   A 40.29 38.19 -87.6 0 0 594.8565 1164.3992   A 40.29 38.19 -87.6 0 0 558.3872 1122.5453   Z"/>
<path xmlns="http://www.w3.org/2000/svg" fill="#0b1832" d="   M 748.03 1113.96   Q 747.93 1114.65 748.21 1115.08   A 0.75 0.75 0.0 0 0 749.51 1115.01   Q 749.98 1114.08 748.90 1113.29   C 750.24 1110.67 749.73 1104.98 749.69 1101.75   A 1.15 1.14 -10.7 0 1 750.45 1100.65   Q 752.59 1099.89 755.24 1099.90   Q 758.01 1099.90 776.78 1099.99   A 1.45 1.45 0.0 0 1 778.22 1101.43   Q 778.43 1140.95 778.38 1196.50   Q 778.37 1211.39 777.40 1221.24   C 775.53 1240.20 764.91 1257.85 747.38 1265.81   Q 739.17 1269.54 731.68 1270.92   Q 711.80 1274.61 691.26 1271.90   C 676.49 1269.95 661.68 1265.39 650.32 1256.12   A 2.13 2.13 0.0 0 1 649.78 1253.48   L 659.69 1234.77   A 1.81 1.81 0.0 0 1 661.92 1233.92   Q 666.91 1235.74 670.86 1238.30   C 676.19 1241.74 680.96 1243.03 686.52 1245.02   Q 698.05 1249.15 712.30 1248.39   C 726.23 1247.65 739.10 1241.83 745.26 1228.88   Q 747.12 1224.96 748.06 1217.24   Q 749.11 1208.59 749.30 1205.22   A 1.35 1.34 -0.0 0 0 747.87 1203.80   Q 746.48 1203.88 745.65 1205.13   Q 743.68 1208.11 741.70 1209.40   Q 735.22 1213.64 733.06 1214.79   C 729.48 1216.69 724.00 1218.41 719.10 1219.12   Q 697.18 1222.31 677.43 1214.18   Q 667.69 1210.17 661.21 1204.08   C 650.52 1194.02 644.02 1180.11 643.14 1165.55   C 642.64 1157.27 642.75 1147.74 645.39 1139.65   C 648.50 1130.10 653.81 1121.05 661.24 1114.50   C 663.97 1112.09 665.97 1109.98 668.48 1108.43   Q 693.89 1092.78 723.54 1099.99   Q 730.34 1101.64 733.70 1103.85   Q 740.52 1108.35 741.15 1108.74   C 743.55 1110.25 744.93 1111.68 746.87 1113.51   A 1.44 1.43 70.9 0 0 747.62 1113.88   Q 747.83 1113.92 748.03 1113.96   Z   M 748.9089 1157.8058   A 38.43 36.60 -1.9 0 0 709.2865 1122.5001   A 38.43 36.60 -1.9 0 0 672.0911 1160.3542   A 38.43 36.60 -1.9 0 0 711.7135 1195.6599   A 38.43 36.60 -1.9 0 0 748.9089 1157.8058   Z"/>
<path xmlns="http://www.w3.org/2000/svg" fill="#0b1832" d="   M 972.86 1140.68   A 0.73 0.73 0.0 0 1 971.92 1140.50   C 966.73 1133.90 959.87 1126.62 951.57 1124.40   Q 930.92 1118.87 914.29 1132.52   C 909.52 1136.43 906.58 1142.57 904.43 1148.63   C 899.49 1162.50 901.41 1177.71 910.32 1189.03   Q 916.69 1197.14 927.30 1201.03   C 938.88 1205.28 953.53 1202.70 962.74 1194.66   Q 966.85 1191.07 971.16 1185.50   A 1.69 1.68 -57.1 0 1 973.28 1185.04   L 994.55 1196.31   A 1.33 1.32 30.9 0 1 995.03 1198.22   Q 989.60 1206.23 988.59 1207.58   C 981.35 1217.36 969.70 1223.47 958.72 1225.73   Q 937.32 1230.15 915.02 1223.97   Q 910.13 1222.62 906.09 1220.38   Q 893.50 1213.43 885.24 1203.52   C 881.41 1198.92 876.80 1190.89 874.97 1184.34   Q 868.14 1159.86 876.83 1137.06   Q 879.02 1131.32 884.06 1124.06   Q 887.90 1118.53 894.34 1113.33   Q 908.05 1102.26 924.61 1099.02   Q 933.83 1097.22 944.45 1097.91   C 960.58 1098.96 974.56 1102.92 985.57 1114.13   Q 990.38 1119.03 994.23 1124.00   Q 994.83 1124.77 995.16 1125.61   A 2.23 2.22 64.2 0 1 994.21 1128.36   L 972.86 1140.68   Z"/>
<rect xmlns="http://www.w3.org/2000/svg" fill="#0b1832" x="814.32" y="1100.07" width="30.20" height="125.68" rx="2.74"/>
<path xmlns="http://www.w3.org/2000/svg" fill="#659ef9" d="   M 748.90 1113.29   Q 749.98 1114.08 749.51 1115.01   A 0.75 0.75 0.0 0 1 748.21 1115.08   Q 747.93 1114.65 748.03 1113.96   Q 748.53 1113.75 748.90 1113.29   Z"/>
</g></g></g></svg>